<mxfile host="Electron" modified="2023-04-13T22:33:25.584Z" agent="Mozilla/5.0 (Windows NT 10.0; Win64; x64) AppleWebKit/537.36 (KHTML, like Gecko) draw.io/21.1.2 Chrome/106.0.5249.199 Electron/21.4.3 Safari/537.36" etag="bjGeROOXgbhVfRBKhirS" version="21.1.2" type="device">
  <diagram name="Page-1" id="e3a06f82-3646-2815-327d-82caf3d4e204">
    <mxGraphModel dx="1195" dy="703" grid="1" gridSize="10" guides="1" tooltips="1" connect="1" arrows="1" fold="1" page="1" pageScale="1.5" pageWidth="1169" pageHeight="826" background="none" math="0" shadow="0">
      <root>
        <mxCell id="0" style=";html=1;" />
        <mxCell id="1" style=";html=1;" parent="0" />
        <mxCell id="w5bmHNwEfHyUWdRWBcjY-12" value="" style="rounded=0;whiteSpace=wrap;html=1;fontSize=40;fontColor=#FFFFFF;fillColor=#FFFFFF;strokeColor=#003366;" parent="1" vertex="1">
          <mxGeometry x="960" y="600" width="560" height="500" as="geometry" />
        </mxCell>
        <mxCell id="6a7d8f32e03d9370-60" value="&lt;b&gt;INTERNAL NETWORK&lt;br&gt;Network Adapter 2&lt;/b&gt;" style="whiteSpace=wrap;html=1;fillColor=#12aab5;fontSize=14;strokeColor=#12aab5;verticalAlign=top;fontColor=#2F5B7C;rounded=0;shadow=0;labelBackgroundColor=none;strokeWidth=3;opacity=30;" parent="1" vertex="1">
          <mxGeometry x="990" y="790" width="500" height="290" as="geometry" />
        </mxCell>
        <mxCell id="0lIhBn5z6jmop4ZzWdtD-18" style="edgeStyle=orthogonalEdgeStyle;rounded=0;orthogonalLoop=1;jettySize=auto;html=1;" edge="1" parent="1" source="w5bmHNwEfHyUWdRWBcjY-2" target="0lIhBn5z6jmop4ZzWdtD-6">
          <mxGeometry relative="1" as="geometry" />
        </mxCell>
        <mxCell id="w5bmHNwEfHyUWdRWBcjY-2" value="&lt;b&gt;Windows VM&lt;br&gt;Internal IP:&amp;nbsp; 10.10.10.22&lt;br&gt;Gateway:&amp;nbsp; &amp;nbsp; &amp;nbsp;10.10.10.1&lt;br&gt;DNS:&lt;span style=&quot;white-space: pre&quot;&gt;	&lt;/span&gt;&amp;nbsp; &amp;nbsp; &amp;nbsp;10.10.10.1&lt;/b&gt;" style="verticalLabelPosition=bottom;aspect=fixed;html=1;verticalAlign=top;strokeColor=none;shape=mxgraph.citrix.desktop;fillColor=#66B2FF;gradientColor=#0066CC;fontSize=14;align=left;" parent="1" vertex="1">
          <mxGeometry x="1320" y="860" width="105.8" height="116.5" as="geometry" />
        </mxCell>
        <mxCell id="w5bmHNwEfHyUWdRWBcjY-6" value="Malicious Traffic&lt;br&gt;sent to Remnux" style="endArrow=classic;html=1;rounded=0;fontSize=13;exitX=-0.029;exitY=0.525;exitDx=0;exitDy=0;exitPerimeter=0;strokeWidth=6;strokeColor=#380000;fontColor=#660000;" parent="1" source="w5bmHNwEfHyUWdRWBcjY-2" edge="1" target="0lIhBn5z6jmop4ZzWdtD-14">
          <mxGeometry x="-0.0964" y="-3" width="50" height="50" relative="1" as="geometry">
            <mxPoint x="1190" y="980" as="sourcePoint" />
            <mxPoint x="1160" y="921" as="targetPoint" />
            <mxPoint as="offset" />
          </mxGeometry>
        </mxCell>
        <mxCell id="0lIhBn5z6jmop4ZzWdtD-1" value="&lt;b&gt;&lt;font style=&quot;font-size: 20px&quot; color=&quot;#ffffff&quot;&gt;Vagrant / Internet&lt;/font&gt;&lt;/b&gt;" style="rounded=1;whiteSpace=wrap;html=1;strokeColor=#6c8ebf;fillColor=#0066CC;opacity=50;" vertex="1" parent="1">
          <mxGeometry x="990" y="660" width="500" height="40" as="geometry" />
        </mxCell>
        <mxCell id="0lIhBn5z6jmop4ZzWdtD-20" style="edgeStyle=orthogonalEdgeStyle;rounded=0;orthogonalLoop=1;jettySize=auto;html=1;entryX=0.06;entryY=0.999;entryDx=0;entryDy=0;entryPerimeter=0;" edge="1" parent="1" source="w5bmHNwEfHyUWdRWBcjY-15" target="0lIhBn5z6jmop4ZzWdtD-1">
          <mxGeometry relative="1" as="geometry" />
        </mxCell>
        <mxCell id="w5bmHNwEfHyUWdRWBcjY-15" value="&lt;span style=&quot;color: rgb(0, 0, 0);&quot;&gt;NAT ADAPTER&lt;br&gt;Network Adapter 1&lt;/span&gt;" style="verticalLabelPosition=middle;sketch=0;aspect=fixed;html=1;verticalAlign=middle;strokeColor=none;align=left;outlineConnect=0;shape=mxgraph.citrix.router;fontSize=12;fontColor=#FFFFFF;fillColor=#FFFFFF;labelPosition=right;fontStyle=1" parent="1" vertex="1">
          <mxGeometry x="990" y="730" width="60.28" height="40" as="geometry" />
        </mxCell>
        <mxCell id="0lIhBn5z6jmop4ZzWdtD-22" style="edgeStyle=orthogonalEdgeStyle;rounded=0;orthogonalLoop=1;jettySize=auto;html=1;entryX=0.72;entryY=1.024;entryDx=0;entryDy=0;entryPerimeter=0;" edge="1" parent="1" source="0lIhBn5z6jmop4ZzWdtD-6" target="0lIhBn5z6jmop4ZzWdtD-1">
          <mxGeometry relative="1" as="geometry" />
        </mxCell>
        <mxCell id="0lIhBn5z6jmop4ZzWdtD-6" value="&lt;span style=&quot;color: rgb(0, 0, 0);&quot;&gt;NAT ADAPTER&lt;br&gt;Network Adapter 1&lt;/span&gt;" style="verticalLabelPosition=middle;sketch=0;aspect=fixed;html=1;verticalAlign=middle;strokeColor=none;align=left;outlineConnect=0;shape=mxgraph.citrix.router;fontSize=12;fontColor=#FFFFFF;fillColor=#FFFFFF;labelPosition=right;fontStyle=1" vertex="1" parent="1">
          <mxGeometry x="1320" y="730" width="60.28" height="40" as="geometry" />
        </mxCell>
        <mxCell id="0lIhBn5z6jmop4ZzWdtD-17" style="edgeStyle=orthogonalEdgeStyle;rounded=0;orthogonalLoop=1;jettySize=auto;html=1;" edge="1" parent="1" source="w5bmHNwEfHyUWdRWBcjY-3" target="w5bmHNwEfHyUWdRWBcjY-15">
          <mxGeometry relative="1" as="geometry" />
        </mxCell>
        <mxCell id="w5bmHNwEfHyUWdRWBcjY-3" value="&lt;div style=&quot;&quot;&gt;&lt;b style=&quot;background-color: initial;&quot;&gt;REMNUX&lt;/b&gt;&lt;/div&gt;&lt;div style=&quot;&quot;&gt;&lt;b&gt;Internal IP:&amp;nbsp; &amp;nbsp;10.10.10.1&lt;/b&gt;&lt;b style=&quot;background-color: initial;&quot;&gt;&lt;br&gt;&lt;/b&gt;&lt;/div&gt;" style="verticalLabelPosition=bottom;aspect=fixed;html=1;verticalAlign=top;strokeColor=none;shape=mxgraph.citrix.xenapp_server;fillColor=#66B2FF;gradientColor=#0066CC;fontSize=14;align=left;" parent="1" vertex="1">
          <mxGeometry x="1031.0450782467312" y="864.64" width="95.52805839712757" height="111.8704694803875" as="geometry" />
        </mxCell>
        <mxCell id="0lIhBn5z6jmop4ZzWdtD-14" value="" style="verticalLabelPosition=middle;sketch=0;aspect=fixed;html=1;verticalAlign=middle;strokeColor=none;align=left;outlineConnect=0;shape=mxgraph.citrix.router;fontSize=12;fontColor=#FFFFFF;fillColor=#FFFFFF;labelPosition=right;fontStyle=1" vertex="1" parent="1">
          <mxGeometry x="1075.2577738635594" y="928.5" width="72.35222613644062" height="48.01107648533297" as="geometry" />
        </mxCell>
        <mxCell id="0lIhBn5z6jmop4ZzWdtD-23" value="Mallab" style="text;strokeColor=none;fillColor=none;html=1;fontSize=26;fontStyle=5;verticalAlign=middle;align=center;" vertex="1" parent="1">
          <mxGeometry x="990" y="603" width="500" height="40" as="geometry" />
        </mxCell>
      </root>
    </mxGraphModel>
  </diagram>
</mxfile>
